<?xml version="1.0"?>
<svg xmlns="http://www.w3.org/2000/svg" id="Layer_1" data-name="Layer 1" viewBox="0 0 512 512" width="512" height="512"><title>User Location</title><path d="M174.59,301.78A130,130,0,1,0,126,200.42,129.436,129.436,0,0,0,174.59,301.78ZM424.71,196.59a168.235,168.235,0,0,1-32.07,98.91L256,484.17,119.36,295.5a168.71,168.71,0,1,1,305.35-98.91Z" style="fill:#f8ec7d"/><path d="M230.02,280.19l-42.87,13.9a31.192,31.192,0,0,0-12.56,7.69,130.006,130.006,0,1,1,162.82-.01,31.418,31.418,0,0,0-12.56-7.68l-42.87-13.9-.05-.02V256.66a53.564,53.564,0,0,0,8.75-5.92,54.178,54.178,0,0,0,18.71-31.77l3.02-10.38v-.09a14.665,14.665,0,0,0,12.11-14.43,14.971,14.971,0,0,0-.42-3.5,11.04,11.04,0,0,0-9.79-8.39V152.53a58.3,58.3,0,1,0-116.59,0v29.65c-4.41.7-8.59,3.4-9.82,8.39a14.971,14.971,0,0,0-.42,3.5,14.673,14.673,0,0,0,12.11,14.43v.09l3.02,10.38a54.288,54.288,0,0,0,27.46,37.69v23.51Z" style="fill:#6fe3ff"/><path d="M324.85,294.09a31.418,31.418,0,0,1,12.56,7.68,130.007,130.007,0,0,1-162.82.01,31.192,31.192,0,0,1,12.56-7.69l42.87-13.9a54.542,54.542,0,0,0,51.96,0Z" style="fill:#e48e66"/><path d="M197.72,182.18c.02,0,.03-.01.05-.01,22.6-3.5,20.69-30.19,20.69-30.19a111.513,111.513,0,0,0,12.61.62l.01,1.86c33.41,29.77,83.23,27.85,83.23,27.85v-.13a11.04,11.04,0,0,1,9.79,8.39,14.971,14.971,0,0,1,.42,3.5,14.665,14.665,0,0,1-12.11,14.43v.09l-3.02,10.38a54.178,54.178,0,0,1-18.71,31.77,53.564,53.564,0,0,1-8.75,5.92,54.328,54.328,0,0,1-79.32-37.69l-3.02-10.38v-.09a14.673,14.673,0,0,1-12.11-14.43,14.971,14.971,0,0,1,.42-3.5C189.13,185.58,193.31,182.88,197.72,182.18Z" style="fill:#f7caa5"/><path d="M314.31,182.18v.13s-49.82,1.92-83.23-27.85l-.01-1.86a133.5,133.5,0,0,0,31.27-3.6l.05.21s16.44,21.15,51.92,23.43Z" style="fill:#3b484c"/><path d="M262.34,149a133.5,133.5,0,0,1-31.27,3.6,111.513,111.513,0,0,1-12.61-.62s1.91,26.69-20.69,30.19c-.02,0-.03.01-.05.01V152.53a58.3,58.3,0,0,1,116.59,0v20.11c-35.48-2.28-51.92-23.43-51.92-23.43Z" style="fill:#6d7375"/><path d="M281.93,280.17l.05.02a54.542,54.542,0,0,1-51.96,0l.05-.02V256.66a54.309,54.309,0,0,0,51.86,0Z" style="fill:#edb288"/><path d="M250.331,488.276a7,7,0,0,0,11.338,0l136.64-188.67a175.711,175.711,0,1,0-284.618,0ZM94.8,183.734a161.711,161.711,0,1,1,292.174,107.66L256,472.236,125.029,291.394A161.847,161.847,0,0,1,94.8,183.734Z" style="fill:#63316d"/><path d="M170.2,307.234A137.005,137.005,0,0,0,393,200.42c0-75.542-61.458-137-137-137s-137,61.458-137,137A136.458,136.458,0,0,0,170.2,307.234Zm16.253-5.358a24.418,24.418,0,0,1,2.854-1.127l40.124-13.01a61.2,61.2,0,0,0,53.137,0l40.123,13.01a24.5,24.5,0,0,1,2.842,1.124,123,123,0,0,1-139.08,0ZM259.8,156.745a75.467,75.467,0,0,0,21.541,14.8,114.3,114.3,0,0,1-32.856-12.971C252.084,158.146,255.889,157.554,259.8,156.745Zm47.513,8.094a70.506,70.506,0,0,1-31.447-12.665,86.615,86.615,0,0,0,22.9-12.359,7,7,0,1,0-8.518-11.111c-7.986,6.122-17.93,10.662-29.566,13.5a127.393,127.393,0,0,1-29.605,3.4,106.855,106.855,0,0,1-11.735-.565,7.021,7.021,0,0,0-7.859,7.416c.1,1.628.55,13.208-6.756,19.314V152.53a51.3,51.3,0,0,1,102.59,0ZM194.7,192.245c.557-2.262,2.821-2.945,4.119-3.151h0l.157-.026c18.216-2.887,24.742-17.853,26.214-29.585q.661.027,1.375.049l-.139.155c31.27,27.864,75.056,29.655,85.783,29.655,1.165,0,1.914-.021,2.241-.032a3.883,3.883,0,0,1,2.848,2.9,7.919,7.919,0,0,1,.225,1.857,7.627,7.627,0,0,1-6.315,7.534,7.064,7.064,0,0,0-5.571,5.221l-2.966,10.19a6.818,6.818,0,0,0-.158.664,47.383,47.383,0,0,1-16.3,27.675,46.622,46.622,0,0,1-7.626,5.158,47.328,47.328,0,0,1-69.093-32.837q-.063-.335-.157-.66l-2.877-9.886a7,7,0,0,0-5.659-5.524,7.675,7.675,0,0,1-6.316-7.535A7.863,7.863,0,0,1,194.7,192.245ZM237.07,267.25a61.234,61.234,0,0,0,37.86,0v8.571a47.345,47.345,0,0,1-37.86-.006ZM256,77.42a122.988,122.988,0,0,1,81.38,215.212,38.659,38.659,0,0,0-10.371-5.2L288.93,275.084V260.64A61.04,61.04,0,0,0,316.2,220.608l1.892-6.5A21.609,21.609,0,0,0,331.52,194.07a21.967,21.967,0,0,0-.622-5.165,17.84,17.84,0,0,0-9.588-11.911V152.53a65.3,65.3,0,1,0-130.59,0v24.6a17.834,17.834,0,0,0-9.624,11.8,21.954,21.954,0,0,0-.616,5.143A21.68,21.68,0,0,0,193.9,214.1l1.9,6.514a61.051,61.051,0,0,0,27.273,40.03v14.445L185,287.429a38.431,38.431,0,0,0-10.383,5.208A122.994,122.994,0,0,1,256,77.42Z" style="fill:#63316d"/></svg>
