<?xml version="1.0" encoding="iso-8859-1"?>
<!-- Generator: Adobe Illustrator 19.0.0, SVG Export Plug-In . SVG Version: 6.00 Build 0)  -->
<svg version="1.1" id="Capa_1" xmlns="http://www.w3.org/2000/svg" xmlns:xlink="http://www.w3.org/1999/xlink" x="0px" y="0px"
	 viewBox="0 0 368 368" style="enable-background:new 0 0 368 368;" xml:space="preserve">
<circle style="fill:#CCE4FF;" cx="184" cy="184" r="32"/>
<g>
	<path style="fill:#007AFF;" d="M184,0c-4.416,0-8,3.584-8,8v76.688l-34.344-34.344c-3.128-3.128-8.184-3.128-11.312,0
		s-3.128,8.184,0,11.312l48,48c0.736,0.736,1.624,1.32,2.6,1.728c0.976,0.4,2.016,0.616,3.056,0.616c1.04,0,2.08-0.216,3.056-0.616
		c0.976-0.408,1.864-0.992,2.6-1.728l48-48c3.128-3.128,3.128-8.184,0-11.312s-8.184-3.128-11.312,0L192,84.688V8
		C192,3.584,188.416,0,184,0z"/>
	<path style="fill:#007AFF;" d="M130.344,317.656c3.128,3.128,8.184,3.128,11.312,0L176,283.312V360c0,4.424,3.584,8,8,8
		c4.416,0,8-3.576,8-8v-76.688l34.344,34.344c1.56,1.56,3.608,2.344,5.656,2.344s4.096-0.784,5.656-2.344
		c3.128-3.128,3.128-8.184,0-11.312l-47.992-47.992c-0.736-0.744-1.624-1.328-2.608-1.736c-1.952-0.808-4.16-0.808-6.112,0
		c-0.984,0.408-1.864,0.992-2.608,1.736l-47.992,47.992C127.216,309.472,127.216,314.528,130.344,317.656z"/>
	<path style="fill:#007AFF;" d="M0,184c0,4.416,3.584,8,8,8h76.688l-34.344,34.344c-3.128,3.128-3.128,8.184,0,11.312
		C51.904,239.216,53.952,240,56,240c2.048,0,4.096-0.784,5.656-2.344l48-48c0.736-0.736,1.32-1.624,1.728-2.6
		c0.808-1.96,0.808-4.16,0-6.112c-0.408-0.976-0.992-1.864-1.728-2.6l-48-48c-3.128-3.128-8.184-3.128-11.312,0
		s-3.128,8.184,0,11.312L84.688,176H8C3.584,176,0,179.584,0,184z"/>
	<path style="fill:#007AFF;" d="M360,176h-76.688l34.344-34.344c3.128-3.128,3.128-8.184,0-11.312s-8.184-3.128-11.312,0l-48,48
		c-0.736,0.736-1.32,1.624-1.728,2.6c-0.808,1.96-0.808,4.16,0,6.112c0.408,0.976,0.992,1.864,1.728,2.6l48,48
		c1.56,1.56,3.608,2.344,5.656,2.344s4.096-0.784,5.656-2.344c3.128-3.128,3.128-8.184,0-11.312L283.312,192H360
		c4.416,0,8-3.584,8-8S364.416,176,360,176z"/>
	<path style="fill:#007AFF;" d="M144,184c0,22.056,17.944,40,40,40s40-17.944,40-40s-17.944-40-40-40S144,161.944,144,184z M208,184
		c0,13.232-10.768,24-24,24s-24-10.768-24-24s10.768-24,24-24S208,170.768,208,184z"/>
</g>
<g>
</g>
<g>
</g>
<g>
</g>
<g>
</g>
<g>
</g>
<g>
</g>
<g>
</g>
<g>
</g>
<g>
</g>
<g>
</g>
<g>
</g>
<g>
</g>
<g>
</g>
<g>
</g>
<g>
</g>
</svg>
