<?xml version="1.0" encoding="iso-8859-1"?>
<!-- Generator: Adobe Illustrator 19.0.0, SVG Export Plug-In . SVG Version: 6.00 Build 0)  -->
<svg version="1.1" id="Capa_1" xmlns="http://www.w3.org/2000/svg" xmlns:xlink="http://www.w3.org/1999/xlink" x="0px" y="0px"
	 viewBox="0 0 512 512" style="enable-background:new 0 0 512 512;" xml:space="preserve">
<path style="fill:#D7DCDD;" d="M269.909,512H242.09c-2.845,0-5.152-2.306-5.152-5.152V383.32h38.122v123.529
	C275.061,509.694,272.755,512,269.909,512z"/>
<path style="fill:#BDBDBD;" d="M269.909,512H256V383.32h19.061v123.529C275.061,509.694,272.755,512,269.909,512z"/>
<path style="fill:#686D6D;" d="M305.456,383.32h-98.911c-2.845,0-5.152-2.306-5.152-5.152V344.39h109.215v33.778
	C310.607,381.013,308.301,383.32,305.456,383.32z"/>
<path style="fill:#555656;" d="M305.456,383.32h-22.648v-38.93h27.8v33.778C310.607,381.013,308.301,383.32,305.456,383.32z"/>
<path style="fill:#D7DCDD;" d="M414.663,344.39H97.337c-2.845,0-5.152-2.306-5.152-5.152V5.152C92.186,2.306,94.492,0,97.337,0
	h317.325c2.845,0,5.152,2.306,5.152,5.152v334.086C419.814,342.083,417.508,344.39,414.663,344.39z"/>
<path style="fill:#BDBDBD;" d="M414.663,344.39H391.05V0h23.613c2.845,0,5.152,2.306,5.152,5.152v334.086
	C419.814,342.083,417.508,344.39,414.663,344.39z"/>
<g>
	<circle style="fill:#555656;" cx="120.95" cy="28.678" r="7.642"/>
	<circle style="fill:#555656;" cx="391.05" cy="28.678" r="7.642"/>
	<circle style="fill:#555656;" cx="120.95" cy="315.71" r="7.642"/>
	<circle style="fill:#555656;" cx="391.05" cy="315.71" r="7.642"/>
</g>
<g>
	<path style="fill:#FFC853;" d="M337.317,162.203h2.248c17.543,0,31.765-14.221,31.765-31.765v-2.249
		c0-17.543-14.221-31.765-31.765-31.765h-2.248c-17.543,0-31.765,14.221-31.765,31.765v2.249
		C305.553,147.981,319.774,162.203,337.317,162.203z"/>
	<path style="fill:#FFC853;" d="M368.659,250.679h-60.435c-2.845,0-5.152-2.306-5.152-5.152v-30.218
		c0-19.534,15.835-35.369,35.369-35.369l0,0c19.534,0,35.369,15.835,35.369,35.369v30.218
		C373.811,248.372,371.504,250.679,368.659,250.679z"/>
	<path style="fill:#FFC853;" d="M172.434,162.203h2.249c17.543,0,31.765-14.221,31.765-31.765v-2.249
		c0-17.543-14.221-31.765-31.765-31.765h-2.249c-17.543,0-31.765,14.221-31.765,31.765v2.249
		C140.67,147.981,154.891,162.203,172.434,162.203z"/>
	<path style="fill:#FFC853;" d="M203.776,250.679h-60.435c-2.845,0-5.152-2.306-5.152-5.152v-30.218
		c0-19.534,15.835-35.369,35.369-35.369l0,0c19.534,0,35.369,15.835,35.369,35.369v30.218
		C208.928,248.372,206.621,250.679,203.776,250.679z"/>
	<path style="fill:#FFC853;" d="M254.533,156.929h2.935c22.898,0,41.46-18.562,41.46-41.46v-2.935
		c0-22.898-18.562-41.46-41.46-41.46h-2.935c-22.898,0-41.46,18.562-41.46,41.46v2.935
		C213.072,138.366,231.635,156.929,254.533,156.929z"/>
	<path style="fill:#FFC853;" d="M297.014,272.411h-82.027c-2.845,0-5.152-2.306-5.152-5.152v-41.014
		c0-25.496,20.669-46.165,46.165-46.165l0,0c25.496,0,46.165,20.669,46.165,46.165v41.014
		C302.165,270.104,299.859,272.411,297.014,272.411z"/>
</g>
<g>
	<path style="fill:#EAAF47;" d="M373.808,215.314v30.209c0,2.845-2.306,5.152-5.152,5.152h-19.752v-35.361
		c0-9.767-3.956-18.608-10.355-25.016c-3.524-3.524-7.8-6.316-12.56-8.098c3.874-1.463,8.068-2.257,12.446-2.257
		c9.767,0,18.608,3.957,25.006,10.355C369.851,196.707,373.808,205.547,373.808,215.314z"/>
	<path style="fill:#EAAF47;" d="M208.924,215.314v30.209c0,2.845-2.306,5.152-5.152,5.152h-19.741v-35.361
		c0-9.767-3.956-18.608-10.355-25.016c-3.534-3.524-7.8-6.305-12.56-8.098c3.874-1.463,8.068-2.257,12.446-2.257
		c9.757,0,18.597,3.957,25.006,10.355C204.968,196.707,208.924,205.547,208.924,215.314z"/>
	<path style="fill:#EAAF47;" d="M302.169,226.246v41.017c0,2.845-2.306,5.152-5.152,5.152h-19.751v-46.169
		c0-12.745-5.172-24.295-13.518-32.651c-5.523-5.522-12.457-9.654-20.195-11.818c3.957-1.113,8.129-1.7,12.446-1.7
		c12.755,0,24.295,5.172,32.651,13.518C297.007,201.951,302.169,213.501,302.169,226.246z"/>
	<path style="fill:#EAAF47;" d="M371.335,128.19v2.246c0,17.546-14.229,31.765-31.765,31.765h-2.257
		c-17.536,0-31.765-14.219-31.765-31.765v-1.113c5.409,4.286,12.24,6.831,19.669,6.831h2.257c17.536,0,31.765-14.218,31.765-31.765
		v-1.133C366.606,109.067,371.335,118.072,371.335,128.19z"/>
	<path style="fill:#EAAF47;" d="M206.451,128.19v2.246c0,17.546-14.229,31.765-31.765,31.765h-2.256
		c-17.536,0-31.765-14.219-31.765-31.765v-1.113c5.409,4.286,12.24,6.831,19.669,6.831h2.256c17.536,0,31.765-14.218,31.765-31.765
		v-1.133C201.722,109.067,206.451,118.072,206.451,128.19z"/>
</g>
<path id="SVGCleanerId_0" style="fill:#EAAF47;" d="M298.923,112.529v2.937c0,22.904-18.556,41.46-41.46,41.46h-2.926
	c-21.771,0-39.616-16.763-41.316-38.091c7.491,7.449,17.814,12.044,29.22,12.044h2.926c22.904,0,41.46-18.556,41.46-41.46v-2.937
	c0-1.133-0.041-2.246-0.134-3.359C294.246,90.634,298.923,101.031,298.923,112.529z"/>
<g>
	<path id="SVGCleanerId_0_1_" style="fill:#EAAF47;" d="M298.923,112.529v2.937c0,22.904-18.556,41.46-41.46,41.46h-2.926
		c-21.771,0-39.616-16.763-41.316-38.091c7.491,7.449,17.814,12.044,29.22,12.044h2.926c22.904,0,41.46-18.556,41.46-41.46v-2.937
		c0-1.133-0.041-2.246-0.134-3.359C294.246,90.634,298.923,101.031,298.923,112.529z"/>
</g>
<g>
</g>
<g>
</g>
<g>
</g>
<g>
</g>
<g>
</g>
<g>
</g>
<g>
</g>
<g>
</g>
<g>
</g>
<g>
</g>
<g>
</g>
<g>
</g>
<g>
</g>
<g>
</g>
<g>
</g>
</svg>
